<?xml version="1.0" encoding="UTF-8" standalone="no"?>
<!DOCTYPE svg PUBLIC "-//W3C//DTD SVG 1.1//EN" "http://www.w3.org/Graphics/SVG/1.1/DTD/svg11.dtd">
<svg xmlns="http://www.w3.org/2000/svg" version="1.1" viewBox="0 0 1000 1000"><g transform="translate(240.143337812327,-459.6532804133693) scale(0.32341027883597384)"><path class="tree-link" d="M85.5,190C85.5,0 85.5,11.5 85.5,11.5" style="stroke-opacity: 1;"></path><path class="tree-link" d="M-228.21499999999992,2470C-228.21499999999992,190 85.5,201.5 85.5,201.5" style="stroke-opacity: 1;"></path><path class="tree-link" d="M-168.21499999999992,2470C-168.21499999999992,190 85.5,201.5 85.5,201.5" style="stroke-opacity: 1;"></path><path class="tree-link" d="M-108.21499999999992,2470C-108.21499999999992,190 85.5,201.5 85.5,201.5" style="stroke-opacity: 1;"></path><path class="tree-link" d="M-48.21499999999992,2470C-48.21499999999992,190 85.5,201.5 85.5,201.5" style="stroke-opacity: 1;"></path><path class="tree-link" d="M980.3599999999997,380C980.3599999999997,190 85.5,201.5 85.5,201.5" style="stroke-opacity: 1;"></path><path class="tree-link" d="M35.785000000000096,2470C35.785000000000096,380 980.3599999999997,391.5 980.3599999999997,391.5" style="stroke-opacity: 1;"></path><path class="tree-link" d="M745.5099999999999,570C745.5099999999999,380 980.3599999999997,391.5 980.3599999999997,391.5" style="stroke-opacity: 1;"></path><path class="tree-link" d="M2159.784999999999,2470C2159.784999999999,380 980.3599999999997,391.5 980.3599999999997,391.5" style="stroke-opacity: 1;"></path><path class="tree-link" d="M259.2850000000002,1330C259.2850000000002,570 745.5099999999999,581.5 745.5099999999999,581.5" style="stroke-opacity: 1;"></path><path class="tree-link" d="M575.7850000000001,2090C575.7850000000001,570 745.5099999999999,581.5 745.5099999999999,581.5" style="stroke-opacity: 1;"></path><path class="tree-link" d="M827.7850000000001,1520C827.7850000000001,570 745.5099999999999,581.5 745.5099999999999,581.5" style="stroke-opacity: 1;"></path><path class="tree-link" d="M1319.185,760C1319.185,570 745.5099999999999,581.5 745.5099999999999,581.5" style="stroke-opacity: 1;"></path><path class="tree-link" d="M259.2850000000002,1520C259.2850000000002,1330 259.2850000000002,1341.5 259.2850000000002,1341.5" style="stroke-opacity: 1;"></path><path class="tree-link" d="M575.7850000000001,2280C575.7850000000001,2090 575.7850000000001,2101.5 575.7850000000001,2101.5" style="stroke-opacity: 1;"></path><path class="tree-link" d="M827.7850000000001,1710C827.7850000000001,1520 827.7850000000001,1531.5 827.7850000000001,1531.5" style="stroke-opacity: 1;"></path><path class="tree-link" d="M1319.185,950C1319.185,760 1319.185,771.5 1319.185,771.5" style="stroke-opacity: 1;"></path><path class="tree-link" d="M119.78500000000012,2470C119.78500000000012,1520 259.2850000000002,1531.5 259.2850000000002,1531.5" style="stroke-opacity: 1;"></path><path class="tree-link" d="M179.78500000000014,2470C179.78500000000014,1520 259.2850000000002,1531.5 259.2850000000002,1531.5" style="stroke-opacity: 1;"></path><path class="tree-link" d="M305.7850000000002,1710C305.7850000000002,1520 259.2850000000002,1531.5 259.2850000000002,1531.5" style="stroke-opacity: 1;"></path><path class="tree-link" d="M431.7850000000002,2470C431.7850000000002,1520 259.2850000000002,1531.5 259.2850000000002,1531.5" style="stroke-opacity: 1;"></path><path class="tree-link" d="M515.7850000000002,2470C515.7850000000002,2280 575.7850000000001,2291.5 575.7850000000001,2291.5" style="stroke-opacity: 1;"></path><path class="tree-link" d="M575.7850000000001,2470C575.7850000000001,2280 575.7850000000001,2291.5 575.7850000000001,2291.5" style="stroke-opacity: 1;"></path><path class="tree-link" d="M635.7850000000002,2470C635.7850000000002,2280 575.7850000000001,2291.5 575.7850000000001,2291.5" style="stroke-opacity: 1;"></path><path class="tree-link" d="M719.7850000000003,2470C719.7850000000003,1710 827.7850000000001,1721.5 827.7850000000001,1721.5" style="stroke-opacity: 1;"></path><path class="tree-link" d="M779.7850000000003,2470C779.7850000000003,1710 827.7850000000001,1721.5 827.7850000000001,1721.5" style="stroke-opacity: 1;"></path><path class="tree-link" d="M863.7850000000002,1900C863.7850000000002,1710 827.7850000000001,1721.5 827.7850000000001,1721.5" style="stroke-opacity: 1;"></path><path class="tree-link" d="M947.7850000000001,2470C947.7850000000001,1710 827.7850000000001,1721.5 827.7850000000001,1721.5" style="stroke-opacity: 1;"></path><path class="tree-link" d="M1031.785,2470C1031.785,950 1319.185,961.5 1319.185,961.5" style="stroke-opacity: 1;"></path><path class="tree-link" d="M1091.785,2470C1091.785,950 1319.185,961.5 1319.185,961.5" style="stroke-opacity: 1;"></path><path class="tree-link" d="M1259.7849999999999,1710C1259.7849999999999,950 1319.185,961.5 1319.185,961.5" style="stroke-opacity: 1;"></path><path class="tree-link" d="M1427.7849999999996,2470C1427.7849999999996,950 1319.185,961.5 1319.185,961.5" style="stroke-opacity: 1;"></path><path class="tree-link" d="M1784.7849999999994,1140C1784.7849999999994,950 1319.185,961.5 1319.185,961.5" style="stroke-opacity: 1;"></path><path class="tree-link" d="M263.78500000000014,2470C263.78500000000014,1710 305.7850000000002,1721.5 305.7850000000002,1721.5" style="stroke-opacity: 1;"></path><path class="tree-link" d="M347.78500000000014,1900C347.78500000000014,1710 305.7850000000002,1721.5 305.7850000000002,1721.5" style="stroke-opacity: 1;"></path><path class="tree-link" d="M863.7850000000002,2090C863.7850000000002,1900 863.7850000000002,1911.5 863.7850000000002,1911.5" style="stroke-opacity: 1;"></path><path class="tree-link" d="M1175.7849999999999,1900C1175.7849999999999,1710 1259.7849999999999,1721.5 1259.7849999999999,1721.5" style="stroke-opacity: 1;"></path><path class="tree-link" d="M1259.7849999999999,2470C1259.7849999999999,1710 1259.7849999999999,1721.5 1259.7849999999999,1721.5" style="stroke-opacity: 1;"></path><path class="tree-link" d="M1343.7849999999999,1900C1343.7849999999999,1710 1259.7849999999999,1721.5 1259.7849999999999,1721.5" style="stroke-opacity: 1;"></path><path class="tree-link" d="M1511.7849999999996,2470C1511.7849999999996,1140 1784.7849999999994,1151.5 1784.7849999999994,1151.5" style="stroke-opacity: 1;"></path><path class="tree-link" d="M1766.7849999999992,1330C1766.7849999999992,1140 1784.7849999999994,1151.5 1784.7849999999994,1151.5" style="stroke-opacity: 1;"></path><path class="tree-link" d="M2075.784999999999,2470C2075.784999999999,1140 1784.7849999999994,1151.5 1784.7849999999994,1151.5" style="stroke-opacity: 1;"></path><path class="tree-link" d="M347.78500000000014,2090C347.78500000000014,1900 347.78500000000014,1911.5 347.78500000000014,1911.5" style="stroke-opacity: 1;"></path><path class="tree-link" d="M863.7850000000002,2280C863.7850000000002,2090 863.7850000000002,2101.5 863.7850000000002,2101.5" style="stroke-opacity: 1;"></path><path class="tree-link" d="M1175.7849999999999,2090C1175.7849999999999,1900 1175.7849999999999,1911.5 1175.7849999999999,1911.5" style="stroke-opacity: 1;"></path><path class="tree-link" d="M1343.7849999999999,2090C1343.7849999999999,1900 1343.7849999999999,1911.5 1343.7849999999999,1911.5" style="stroke-opacity: 1;"></path><path class="tree-link" d="M1766.7849999999992,1520C1766.7849999999992,1330 1766.7849999999992,1341.5 1766.7849999999992,1341.5" style="stroke-opacity: 1;"></path><path class="tree-link" d="M347.78500000000014,2280C347.78500000000014,2090 347.78500000000014,2101.5 347.78500000000014,2101.5" style="stroke-opacity: 1;"></path><path class="tree-link" d="M863.7850000000002,2470C863.7850000000002,2280 863.7850000000002,2291.5 863.7850000000002,2291.5" style="stroke-opacity: 1;"></path><path class="tree-link" d="M1175.7849999999999,2280C1175.7849999999999,2090 1175.7849999999999,2101.5 1175.7849999999999,2101.5" style="stroke-opacity: 1;"></path><path class="tree-link" d="M1343.7849999999999,2280C1343.7849999999999,2090 1343.7849999999999,2101.5 1343.7849999999999,2101.5" style="stroke-opacity: 1;"></path><path class="tree-link" d="M1766.7849999999992,1710C1766.7849999999992,1520 1766.7849999999992,1531.5 1766.7849999999992,1531.5" style="stroke-opacity: 1;"></path><path class="tree-link" d="M347.78500000000014,2470C347.78500000000014,2280 347.78500000000014,2291.5 347.78500000000014,2291.5" style="stroke-opacity: 1;"></path><path class="tree-link" d="M1175.7849999999999,2470C1175.7849999999999,2280 1175.7849999999999,2291.5 1175.7849999999999,2291.5" style="stroke-opacity: 1;"></path><path class="tree-link" d="M1343.7849999999999,2470C1343.7849999999999,2280 1343.7849999999999,2291.5 1343.7849999999999,2291.5" style="stroke-opacity: 1;"></path><path class="tree-link" d="M1595.7849999999994,2470C1595.7849999999994,1710 1766.7849999999992,1721.5 1766.7849999999992,1721.5" style="stroke-opacity: 1;"></path><path class="tree-link" d="M1655.7849999999994,2470C1655.7849999999994,1710 1766.7849999999992,1721.5 1766.7849999999992,1721.5" style="stroke-opacity: 1;"></path><path class="tree-link" d="M1823.7849999999994,1900C1823.7849999999994,1710 1766.7849999999992,1721.5 1766.7849999999992,1721.5" style="stroke-opacity: 1;"></path><path class="tree-link" d="M1991.7849999999992,2470C1991.7849999999992,1710 1766.7849999999992,1721.5 1766.7849999999992,1721.5" style="stroke-opacity: 1;"></path><path class="tree-link" d="M1739.7849999999994,2090C1739.7849999999994,1900 1823.7849999999994,1911.5 1823.7849999999994,1911.5" style="stroke-opacity: 1;"></path><path class="tree-link" d="M1823.7849999999994,2470C1823.7849999999994,1900 1823.7849999999994,1911.5 1823.7849999999994,1911.5" style="stroke-opacity: 1;"></path><path class="tree-link" d="M1907.7849999999992,2090C1907.7849999999992,1900 1823.7849999999994,1911.5 1823.7849999999994,1911.5" style="stroke-opacity: 1;"></path><path class="tree-link" d="M1739.7849999999994,2280C1739.7849999999994,2090 1739.7849999999994,2101.5 1739.7849999999994,2101.5" style="stroke-opacity: 1;"></path><path class="tree-link" d="M1907.7849999999992,2280C1907.7849999999992,2090 1907.7849999999992,2101.5 1907.7849999999992,2101.5" style="stroke-opacity: 1;"></path><path class="tree-link" d="M1739.7849999999994,2470C1739.7849999999994,2280 1739.7849999999994,2291.5 1739.7849999999994,2291.5" style="stroke-opacity: 1;"></path><path class="tree-link" d="M1907.7849999999992,2470C1907.7849999999992,2280 1907.7849999999992,2291.5 1907.7849999999992,2291.5" style="stroke-opacity: 1;"></path><g class="tree-node tree-root" transform="translate(0, 0)" style="opacity: 1;"><rect width="171" height="23" rx="0" ry="0"></rect><text class="node-text" y="11.5" dy=".35em" x="51.273807525634766">programa</text><text class="token-range" x="0" y="11.5" dx="0" dy="-1.8em">⨳ 0 - 31</text><text class="token-value" x="0" y="11.5" dy="2.5em" dx="85.5"></text></g><g class="tree-node" transform="translate(0, 190)" style="opacity: 1;"><rect width="171" height="23" rx="0" ry="0"></rect><text class="node-text" y="11.5" dy=".35em" x="42.384395599365234">funcionMain</text><text class="token-range" x="0" y="11.5" dx="0" dy="-1.8em">⨳ 0 - 31</text><text class="token-value" x="0" y="11.5" dy="2.5em" dx="85.5"></text></g><g class="tree-node tree-leaf" transform="translate(-313.7149999999999, 2470)" style="opacity: 1;"><rect width="171" height="23" rx="10" ry="10"></rect><text class="node-text" y="11.5" dy=".35em" x="61.925437927246094">Entero</text><text class="token-range" x="0" y="11.5" dx="0" dy="-1.8em">⨳ 0</text><text class="token-value" x="0" y="11.5" dy="2.5em" dx="72.30294418334961">int</text></g><g class="tree-node tree-leaf" transform="translate(-253.71499999999992, 2470)" style="opacity: 1;"><rect width="171" height="23" rx="10" ry="10"></rect><text class="node-text" y="11.5" dy=".35em" x="67.27083206176758">T__1</text><text class="token-range" x="0" y="11.5" dx="0" dy="-1.8em">⨳ 1</text><text class="token-value" x="0" y="11.5" dy="2.5em" dx="67.91697883605957">main</text></g><g class="tree-node tree-leaf" transform="translate(-193.71499999999992, 2470)" style="opacity: 1;"><rect width="171" height="23" rx="10" ry="10"></rect><text class="node-text" y="11.5" dy=".35em" x="47.71021270751953">ParAbierto</text><text class="token-range" x="0" y="11.5" dx="0" dy="-1.8em">⨳ 2</text><text class="token-value" x="0" y="11.5" dy="2.5em" dx="81.09445476531982">(</text></g><g class="tree-node tree-leaf" transform="translate(-133.71499999999992, 2470)" style="opacity: 1;"><rect width="171" height="23" rx="10" ry="10"></rect><text class="node-text" y="11.5" dy=".35em" x="44.166194915771484">ParCerrado</text><text class="token-range" x="0" y="11.5" dx="0" dy="-1.8em">⨳ 3</text><text class="token-value" x="0" y="11.5" dy="2.5em" dx="81.09445476531982">)</text></g><g class="tree-node" transform="translate(894.8599999999997, 380)" style="opacity: 1;"><rect width="171" height="23" rx="0" ry="0"></rect><text class="node-text" y="11.5" dy=".35em" x="61.475093841552734">bloque</text><text class="token-range" x="0" y="11.5" dx="0" dy="-1.8em">⨳ 4 - 31</text><text class="token-value" x="0" y="11.5" dy="2.5em" dx="85.5"></text></g><g class="tree-node tree-leaf" transform="translate(-49.714999999999904, 2470)" style="opacity: 1;"><rect width="171" height="23" rx="10" ry="10"></rect><text class="node-text" y="11.5" dy=".35em" x="41.05294418334961">LlaveAbierta</text><text class="token-range" x="0" y="11.5" dx="0" dy="-1.8em">⨳ 4</text><text class="token-value" x="0" y="11.5" dy="2.5em" dx="81.09445476531982">{</text></g><g class="tree-node" transform="translate(660.0099999999999, 570)" style="opacity: 1;"><rect width="171" height="23" rx="0" ry="0"></rect><text class="node-text" y="11.5" dy=".35em" x="38.84038162231445">instrucciones</text><text class="token-range" x="0" y="11.5" dx="0" dy="-1.8em">⨳ 5 - 30</text><text class="token-value" x="0" y="11.5" dy="2.5em" dx="85.5"></text></g><g class="tree-node tree-leaf" transform="translate(2074.284999999999, 2470)" style="opacity: 1;"><rect width="171" height="23" rx="10" ry="10"></rect><text class="node-text" y="11.5" dy=".35em" x="37.48934555053711">LlaveCerrada</text><text class="token-range" x="0" y="11.5" dx="0" dy="-1.8em">⨳ 31</text><text class="token-value" x="0" y="11.5" dy="2.5em" dx="81.09445476531982">}</text></g><g class="tree-node" transform="translate(173.7850000000002, 1330)" style="opacity: 1;"><rect width="171" height="23" rx="0" ry="0"></rect><text class="node-text" y="11.5" dy=".35em" x="47.279449462890625">instruccion</text><text class="token-range" x="0" y="11.5" dx="0" dy="-1.8em">⨳ 5 - 9</text><text class="token-value" x="0" y="11.5" dy="2.5em" dx="85.5"></text></g><g class="tree-node" transform="translate(490.28500000000014, 2090)" style="opacity: 1;"><rect width="171" height="23" rx="0" ry="0"></rect><text class="node-text" y="11.5" dy=".35em" x="47.279449462890625">instruccion</text><text class="token-range" x="0" y="11.5" dx="0" dy="-1.8em">⨳ 10 - 12</text><text class="token-value" x="0" y="11.5" dy="2.5em" dx="85.5"></text></g><g class="tree-node" transform="translate(742.2850000000001, 1520)" style="opacity: 1;"><rect width="171" height="23" rx="0" ry="0"></rect><text class="node-text" y="11.5" dy=".35em" x="47.279449462890625">instruccion</text><text class="token-range" x="0" y="11.5" dx="0" dy="-1.8em">⨳ 13 - 16</text><text class="token-value" x="0" y="11.5" dy="2.5em" dx="85.5"></text></g><g class="tree-node" transform="translate(1233.685, 760)" style="opacity: 1;"><rect width="171" height="23" rx="0" ry="0"></rect><text class="node-text" y="11.5" dy=".35em" x="47.279449462890625">instruccion</text><text class="token-range" x="0" y="11.5" dx="0" dy="-1.8em">⨳ 17 - 30</text><text class="token-value" x="0" y="11.5" dy="2.5em" dx="85.5"></text></g><g class="tree-node" transform="translate(173.7850000000002, 1520)" style="opacity: 1;"><rect width="171" height="23" rx="0" ry="0"></rect><text class="node-text" y="11.5" dy=".35em" x="56.59962272644043">declarar</text><text class="token-range" x="0" y="11.5" dx="0" dy="-1.8em">⨳ 5 - 9</text><text class="token-value" x="0" y="11.5" dy="2.5em" dx="85.5"></text></g><g class="tree-node" transform="translate(490.28500000000014, 2280)" style="opacity: 1;"><rect width="171" height="23" rx="0" ry="0"></rect><text class="node-text" y="11.5" dy=".35em" x="56.59962272644043">declarar</text><text class="token-range" x="0" y="11.5" dx="0" dy="-1.8em">⨳ 10 - 12</text><text class="token-value" x="0" y="11.5" dy="2.5em" dx="85.5"></text></g><g class="tree-node" transform="translate(742.2850000000001, 1710)" style="opacity: 1;"><rect width="171" height="23" rx="0" ry="0"></rect><text class="node-text" y="11.5" dy=".35em" x="59.26253128051758">asignar</text><text class="token-range" x="0" y="11.5" dx="0" dy="-1.8em">⨳ 13 - 16</text><text class="token-value" x="0" y="11.5" dy="2.5em" dx="85.5"></text></g><g class="tree-node" transform="translate(1233.685, 950)" style="opacity: 1;"><rect width="171" height="23" rx="0" ry="0"></rect><text class="node-text" y="11.5" dy=".35em" x="54.83740425109863">mientras</text><text class="token-range" x="0" y="11.5" dx="0" dy="-1.8em">⨳ 17 - 30</text><text class="token-value" x="0" y="11.5" dy="2.5em" dx="85.5"></text></g><g class="tree-node tree-leaf" transform="translate(34.285000000000124, 2470)" style="opacity: 1;"><rect width="171" height="23" rx="10" ry="10"></rect><text class="node-text" y="11.5" dy=".35em" x="61.925437927246094">Entero</text><text class="token-range" x="0" y="11.5" dx="0" dy="-1.8em">⨳ 5</text><text class="token-value" x="0" y="11.5" dy="2.5em" dx="72.30294418334961">int</text></g><g class="tree-node tree-leaf" transform="translate(94.28500000000012, 2470)" style="opacity: 1;"><rect width="171" height="23" rx="10" ry="10"></rect><text class="node-text" y="11.5" dy=".35em" x="41.934051513671875">Identificador</text><text class="token-range" x="0" y="11.5" dx="0" dy="-1.8em">⨳ 6</text><text class="token-value" x="0" y="11.5" dy="2.5em" dx="81.09445476531982">a</text></g><g class="tree-node" transform="translate(220.2850000000002, 1710)" style="opacity: 1;"><rect width="171" height="23" rx="0" ry="0"></rect><text class="node-text" y="11.5" dy=".35em" x="52.605262756347656">inicializar</text><text class="token-range" x="0" y="11.5" dx="0" dy="-1.8em">⨳ 7 - 8</text><text class="token-value" x="0" y="11.5" dy="2.5em" dx="85.5"></text></g><g class="tree-node tree-leaf" transform="translate(346.2850000000002, 2470)" style="opacity: 1;"><rect width="171" height="23" rx="10" ry="10"></rect><text class="node-text" y="11.5" dy=".35em" x="43.265506744384766">PuntoComa</text><text class="token-range" x="0" y="11.5" dx="0" dy="-1.8em">⨳ 9</text><text class="token-value" x="0" y="11.5" dy="2.5em" dx="81.09445476531982">;</text></g><g class="tree-node tree-leaf" transform="translate(430.2850000000002, 2470)" style="opacity: 1;"><rect width="171" height="23" rx="10" ry="10"></rect><text class="node-text" y="11.5" dy=".35em" x="61.925437927246094">Entero</text><text class="token-range" x="0" y="11.5" dx="0" dy="-1.8em">⨳ 10</text><text class="token-value" x="0" y="11.5" dy="2.5em" dx="72.30294418334961">int</text></g><g class="tree-node tree-leaf" transform="translate(490.28500000000014, 2470)" style="opacity: 1;"><rect width="171" height="23" rx="10" ry="10"></rect><text class="node-text" y="11.5" dy=".35em" x="41.934051513671875">Identificador</text><text class="token-range" x="0" y="11.5" dx="0" dy="-1.8em">⨳ 11</text><text class="token-value" x="0" y="11.5" dy="2.5em" dx="81.09445476531982">b</text></g><g class="tree-node tree-leaf" transform="translate(550.2850000000002, 2470)" style="opacity: 1;"><rect width="171" height="23" rx="10" ry="10"></rect><text class="node-text" y="11.5" dy=".35em" x="43.265506744384766">PuntoComa</text><text class="token-range" x="0" y="11.5" dx="0" dy="-1.8em">⨳ 12</text><text class="token-value" x="0" y="11.5" dy="2.5em" dx="81.09445476531982">;</text></g><g class="tree-node tree-leaf" transform="translate(634.2850000000003, 2470)" style="opacity: 1;"><rect width="171" height="23" rx="10" ry="10"></rect><text class="node-text" y="11.5" dy=".35em" x="41.934051513671875">Identificador</text><text class="token-range" x="0" y="11.5" dx="0" dy="-1.8em">⨳ 13</text><text class="token-value" x="0" y="11.5" dy="2.5em" dx="81.09445476531982">b</text></g><g class="tree-node tree-leaf" transform="translate(694.2850000000003, 2470)" style="opacity: 1;"><rect width="171" height="23" rx="10" ry="10"></rect><text class="node-text" y="11.5" dy=".35em" x="46.37875747680664">Asignacion</text><text class="token-range" x="0" y="11.5" dx="0" dy="-1.8em">⨳ 14</text><text class="token-value" x="0" y="11.5" dy="2.5em" dx="81.09445476531982">=</text></g><g class="tree-node" transform="translate(778.2850000000002, 1900)" style="opacity: 1;"><rect width="171" height="23" rx="0" ry="0"></rect><text class="node-text" y="11.5" dy=".35em" x="50.823463439941406">expresion</text><text class="token-range" x="0" y="11.5" dx="0" dy="-1.8em">⨳ 15</text><text class="token-value" x="0" y="11.5" dy="2.5em" dx="85.5"></text></g><g class="tree-node tree-leaf" transform="translate(862.2850000000001, 2470)" style="opacity: 1;"><rect width="171" height="23" rx="10" ry="10"></rect><text class="node-text" y="11.5" dy=".35em" x="43.265506744384766">PuntoComa</text><text class="token-range" x="0" y="11.5" dx="0" dy="-1.8em">⨳ 16</text><text class="token-value" x="0" y="11.5" dy="2.5em" dx="81.09445476531982">;</text></g><g class="tree-node tree-leaf" transform="translate(946.2850000000001, 2470)" style="opacity: 1;"><rect width="171" height="23" rx="10" ry="10"></rect><text class="node-text" y="11.5" dy=".35em" x="54.83740425109863">Mientras</text><text class="token-range" x="0" y="11.5" dx="0" dy="-1.8em">⨳ 17</text><text class="token-value" x="0" y="11.5" dy="2.5em" dx="63.51143455505371">while</text></g><g class="tree-node tree-leaf" transform="translate(1006.2850000000001, 2470)" style="opacity: 1;"><rect width="171" height="23" rx="10" ry="10"></rect><text class="node-text" y="11.5" dy=".35em" x="47.71021270751953">ParAbierto</text><text class="token-range" x="0" y="11.5" dx="0" dy="-1.8em">⨳ 18</text><text class="token-value" x="0" y="11.5" dy="2.5em" dx="81.09445476531982">(</text></g><g class="tree-node" transform="translate(1174.2849999999999, 1710)" style="opacity: 1;"><rect width="171" height="23" rx="0" ry="0"></rect><text class="node-text" y="11.5" dy=".35em" x="51.724151611328125">comparar</text><text class="token-range" x="0" y="11.5" dx="0" dy="-1.8em">⨳ 19 - 21</text><text class="token-value" x="0" y="11.5" dy="2.5em" dx="85.5"></text></g><g class="tree-node tree-leaf" transform="translate(1342.2849999999996, 2470)" style="opacity: 1;"><rect width="171" height="23" rx="10" ry="10"></rect><text class="node-text" y="11.5" dy=".35em" x="44.166194915771484">ParCerrado</text><text class="token-range" x="0" y="11.5" dx="0" dy="-1.8em">⨳ 22</text><text class="token-value" x="0" y="11.5" dy="2.5em" dx="81.09445476531982">)</text></g><g class="tree-node" transform="translate(1699.2849999999994, 1140)" style="opacity: 1;"><rect width="171" height="23" rx="0" ry="0"></rect><text class="node-text" y="11.5" dy=".35em" x="61.475093841552734">bloque</text><text class="token-range" x="0" y="11.5" dx="0" dy="-1.8em">⨳ 23 - 30</text><text class="token-value" x="0" y="11.5" dy="2.5em" dx="85.5"></text></g><g class="tree-node tree-leaf" transform="translate(178.28500000000014, 2470)" style="opacity: 1;"><rect width="171" height="23" rx="10" ry="10"></rect><text class="node-text" y="11.5" dy=".35em" x="46.37875747680664">Asignacion</text><text class="token-range" x="0" y="11.5" dx="0" dy="-1.8em">⨳ 7</text><text class="token-value" x="0" y="11.5" dy="2.5em" dx="81.09445476531982">=</text></g><g class="tree-node" transform="translate(262.28500000000014, 1900)" style="opacity: 1;"><rect width="171" height="23" rx="0" ry="0"></rect><text class="node-text" y="11.5" dy=".35em" x="50.823463439941406">expresion</text><text class="token-range" x="0" y="11.5" dx="0" dy="-1.8em">⨳ 8</text><text class="token-value" x="0" y="11.5" dy="2.5em" dx="85.5"></text></g><g class="tree-node" transform="translate(778.2850000000002, 2090)" style="opacity: 1;"><rect width="171" height="23" rx="0" ry="0"></rect><text class="node-text" y="11.5" dy=".35em" x="58.83176612854004">termino</text><text class="token-range" x="0" y="11.5" dx="0" dy="-1.8em">⨳ 15</text><text class="token-value" x="0" y="11.5" dy="2.5em" dx="85.5"></text></g><g class="tree-node" transform="translate(1090.2849999999999, 1900)" style="opacity: 1;"><rect width="171" height="23" rx="0" ry="0"></rect><text class="node-text" y="11.5" dy=".35em" x="50.823463439941406">expresion</text><text class="token-range" x="0" y="11.5" dx="0" dy="-1.8em">⨳ 19</text><text class="token-value" x="0" y="11.5" dy="2.5em" dx="85.5"></text></g><g class="tree-node tree-leaf" transform="translate(1174.2849999999999, 2470)" style="opacity: 1;"><rect width="171" height="23" rx="10" ry="10"></rect><text class="node-text" y="11.5" dy=".35em" x="37.939693450927734">Comparacion</text><text class="token-range" x="0" y="11.5" dx="0" dy="-1.8em">⨳ 20</text><text class="token-value" x="0" y="11.5" dy="2.5em" dx="81.09445476531982">&lt;</text></g><g class="tree-node" transform="translate(1258.2849999999999, 1900)" style="opacity: 1;"><rect width="171" height="23" rx="0" ry="0"></rect><text class="node-text" y="11.5" dy=".35em" x="50.823463439941406">expresion</text><text class="token-range" x="0" y="11.5" dx="0" dy="-1.8em">⨳ 21</text><text class="token-value" x="0" y="11.5" dy="2.5em" dx="85.5"></text></g><g class="tree-node tree-leaf" transform="translate(1426.2849999999996, 2470)" style="opacity: 1;"><rect width="171" height="23" rx="10" ry="10"></rect><text class="node-text" y="11.5" dy=".35em" x="41.05294418334961">LlaveAbierta</text><text class="token-range" x="0" y="11.5" dx="0" dy="-1.8em">⨳ 23</text><text class="token-value" x="0" y="11.5" dy="2.5em" dx="81.09445476531982">{</text></g><g class="tree-node" transform="translate(1681.2849999999992, 1330)" style="opacity: 1;"><rect width="171" height="23" rx="0" ry="0"></rect><text class="node-text" y="11.5" dy=".35em" x="38.84038162231445">instrucciones</text><text class="token-range" x="0" y="11.5" dx="0" dy="-1.8em">⨳ 24 - 29</text><text class="token-value" x="0" y="11.5" dy="2.5em" dx="85.5"></text></g><g class="tree-node tree-leaf" transform="translate(1990.2849999999992, 2470)" style="opacity: 1;"><rect width="171" height="23" rx="10" ry="10"></rect><text class="node-text" y="11.5" dy=".35em" x="37.48934555053711">LlaveCerrada</text><text class="token-range" x="0" y="11.5" dx="0" dy="-1.8em">⨳ 30</text><text class="token-value" x="0" y="11.5" dy="2.5em" dx="81.09445476531982">}</text></g><g class="tree-node" transform="translate(262.28500000000014, 2090)" style="opacity: 1;"><rect width="171" height="23" rx="0" ry="0"></rect><text class="node-text" y="11.5" dy=".35em" x="58.83176612854004">termino</text><text class="token-range" x="0" y="11.5" dx="0" dy="-1.8em">⨳ 8</text><text class="token-value" x="0" y="11.5" dy="2.5em" dx="85.5"></text></g><g class="tree-node" transform="translate(778.2850000000002, 2280)" style="opacity: 1;"><rect width="171" height="23" rx="0" ry="0"></rect><text class="node-text" y="11.5" dy=".35em" x="65.48903465270996">factor</text><text class="token-range" x="0" y="11.5" dx="0" dy="-1.8em">⨳ 15</text><text class="token-value" x="0" y="11.5" dy="2.5em" dx="85.5"></text></g><g class="tree-node" transform="translate(1090.2849999999999, 2090)" style="opacity: 1;"><rect width="171" height="23" rx="0" ry="0"></rect><text class="node-text" y="11.5" dy=".35em" x="58.83176612854004">termino</text><text class="token-range" x="0" y="11.5" dx="0" dy="-1.8em">⨳ 19</text><text class="token-value" x="0" y="11.5" dy="2.5em" dx="85.5"></text></g><g class="tree-node" transform="translate(1258.2849999999999, 2090)" style="opacity: 1;"><rect width="171" height="23" rx="0" ry="0"></rect><text class="node-text" y="11.5" dy=".35em" x="58.83176612854004">termino</text><text class="token-range" x="0" y="11.5" dx="0" dy="-1.8em">⨳ 21</text><text class="token-value" x="0" y="11.5" dy="2.5em" dx="85.5"></text></g><g class="tree-node" transform="translate(1681.2849999999992, 1520)" style="opacity: 1;"><rect width="171" height="23" rx="0" ry="0"></rect><text class="node-text" y="11.5" dy=".35em" x="47.279449462890625">instruccion</text><text class="token-range" x="0" y="11.5" dx="0" dy="-1.8em">⨳ 24 - 29</text><text class="token-value" x="0" y="11.5" dy="2.5em" dx="85.5"></text></g><g class="tree-node" transform="translate(262.28500000000014, 2280)" style="opacity: 1;"><rect width="171" height="23" rx="0" ry="0"></rect><text class="node-text" y="11.5" dy=".35em" x="65.48903465270996">factor</text><text class="token-range" x="0" y="11.5" dx="0" dy="-1.8em">⨳ 8</text><text class="token-value" x="0" y="11.5" dy="2.5em" dx="85.5"></text></g><g class="tree-node tree-leaf" transform="translate(778.2850000000002, 2470)" style="opacity: 1;"><rect width="171" height="23" rx="10" ry="10"></rect><text class="node-text" y="11.5" dy=".35em" x="57.04996871948242">Numero</text><text class="token-range" x="0" y="11.5" dx="0" dy="-1.8em">⨳ 15</text><text class="token-value" x="0" y="11.5" dy="2.5em" dx="76.70848941802979">20</text></g><g class="tree-node" transform="translate(1090.2849999999999, 2280)" style="opacity: 1;"><rect width="171" height="23" rx="0" ry="0"></rect><text class="node-text" y="11.5" dy=".35em" x="65.48903465270996">factor</text><text class="token-range" x="0" y="11.5" dx="0" dy="-1.8em">⨳ 19</text><text class="token-value" x="0" y="11.5" dy="2.5em" dx="85.5"></text></g><g class="tree-node" transform="translate(1258.2849999999999, 2280)" style="opacity: 1;"><rect width="171" height="23" rx="0" ry="0"></rect><text class="node-text" y="11.5" dy=".35em" x="65.48903465270996">factor</text><text class="token-range" x="0" y="11.5" dx="0" dy="-1.8em">⨳ 21</text><text class="token-value" x="0" y="11.5" dy="2.5em" dx="85.5"></text></g><g class="tree-node" transform="translate(1681.2849999999992, 1710)" style="opacity: 1;"><rect width="171" height="23" rx="0" ry="0"></rect><text class="node-text" y="11.5" dy=".35em" x="59.26253128051758">asignar</text><text class="token-range" x="0" y="11.5" dx="0" dy="-1.8em">⨳ 24 - 29</text><text class="token-value" x="0" y="11.5" dy="2.5em" dx="85.5"></text></g><g class="tree-node tree-leaf" transform="translate(262.28500000000014, 2470)" style="opacity: 1;"><rect width="171" height="23" rx="10" ry="10"></rect><text class="node-text" y="11.5" dy=".35em" x="57.04996871948242">Numero</text><text class="token-range" x="0" y="11.5" dx="0" dy="-1.8em">⨳ 8</text><text class="token-value" x="0" y="11.5" dy="2.5em" dx="76.70848941802979">10</text></g><g class="tree-node tree-leaf" transform="translate(1090.2849999999999, 2470)" style="opacity: 1;"><rect width="171" height="23" rx="10" ry="10"></rect><text class="node-text" y="11.5" dy=".35em" x="41.934051513671875">Identificador</text><text class="token-range" x="0" y="11.5" dx="0" dy="-1.8em">⨳ 19</text><text class="token-value" x="0" y="11.5" dy="2.5em" dx="81.09445476531982">a</text></g><g class="tree-node tree-leaf" transform="translate(1258.2849999999999, 2470)" style="opacity: 1;"><rect width="171" height="23" rx="10" ry="10"></rect><text class="node-text" y="11.5" dy=".35em" x="41.934051513671875">Identificador</text><text class="token-range" x="0" y="11.5" dx="0" dy="-1.8em">⨳ 21</text><text class="token-value" x="0" y="11.5" dy="2.5em" dx="81.09445476531982">b</text></g><g class="tree-node tree-leaf" transform="translate(1510.2849999999994, 2470)" style="opacity: 1;"><rect width="171" height="23" rx="10" ry="10"></rect><text class="node-text" y="11.5" dy=".35em" x="41.934051513671875">Identificador</text><text class="token-range" x="0" y="11.5" dx="0" dy="-1.8em">⨳ 24</text><text class="token-value" x="0" y="11.5" dy="2.5em" dx="81.09445476531982">a</text></g><g class="tree-node tree-leaf" transform="translate(1570.2849999999994, 2470)" style="opacity: 1;"><rect width="171" height="23" rx="10" ry="10"></rect><text class="node-text" y="11.5" dy=".35em" x="46.37875747680664">Asignacion</text><text class="token-range" x="0" y="11.5" dx="0" dy="-1.8em">⨳ 25</text><text class="token-value" x="0" y="11.5" dy="2.5em" dx="81.09445476531982">=</text></g><g class="tree-node" transform="translate(1738.2849999999994, 1900)" style="opacity: 1;"><rect width="171" height="23" rx="0" ry="0"></rect><text class="node-text" y="11.5" dy=".35em" x="50.823463439941406">expresion</text><text class="token-range" x="0" y="11.5" dx="0" dy="-1.8em">⨳ 26 - 28</text><text class="token-value" x="0" y="11.5" dy="2.5em" dx="85.5"></text></g><g class="tree-node tree-leaf" transform="translate(1906.2849999999992, 2470)" style="opacity: 1;"><rect width="171" height="23" rx="10" ry="10"></rect><text class="node-text" y="11.5" dy=".35em" x="43.265506744384766">PuntoComa</text><text class="token-range" x="0" y="11.5" dx="0" dy="-1.8em">⨳ 29</text><text class="token-value" x="0" y="11.5" dy="2.5em" dx="81.09445476531982">;</text></g><g class="tree-node" transform="translate(1654.2849999999994, 2090)" style="opacity: 1;"><rect width="171" height="23" rx="0" ry="0"></rect><text class="node-text" y="11.5" dy=".35em" x="58.83176612854004">termino</text><text class="token-range" x="0" y="11.5" dx="0" dy="-1.8em">⨳ 26</text><text class="token-value" x="0" y="11.5" dy="2.5em" dx="85.5"></text></g><g class="tree-node tree-leaf" transform="translate(1738.2849999999994, 2470)" style="opacity: 1;"><rect width="171" height="23" rx="10" ry="10"></rect><text class="node-text" y="11.5" dy=".35em" x="64.60792541503906">Suma</text><text class="token-range" x="0" y="11.5" dx="0" dy="-1.8em">⨳ 27</text><text class="token-value" x="0" y="11.5" dy="2.5em" dx="81.09445476531982">+</text></g><g class="tree-node" transform="translate(1822.2849999999992, 2090)" style="opacity: 1;"><rect width="171" height="23" rx="0" ry="0"></rect><text class="node-text" y="11.5" dy=".35em" x="58.83176612854004">termino</text><text class="token-range" x="0" y="11.5" dx="0" dy="-1.8em">⨳ 28</text><text class="token-value" x="0" y="11.5" dy="2.5em" dx="85.5"></text></g><g class="tree-node" transform="translate(1654.2849999999994, 2280)" style="opacity: 1;"><rect width="171" height="23" rx="0" ry="0"></rect><text class="node-text" y="11.5" dy=".35em" x="65.48903465270996">factor</text><text class="token-range" x="0" y="11.5" dx="0" dy="-1.8em">⨳ 26</text><text class="token-value" x="0" y="11.5" dy="2.5em" dx="85.5"></text></g><g class="tree-node" transform="translate(1822.2849999999992, 2280)" style="opacity: 1;"><rect width="171" height="23" rx="0" ry="0"></rect><text class="node-text" y="11.5" dy=".35em" x="65.48903465270996">factor</text><text class="token-range" x="0" y="11.5" dx="0" dy="-1.8em">⨳ 28</text><text class="token-value" x="0" y="11.5" dy="2.5em" dx="85.5"></text></g><g class="tree-node tree-leaf" transform="translate(1654.2849999999994, 2470)" style="opacity: 1;"><rect width="171" height="23" rx="10" ry="10"></rect><text class="node-text" y="11.5" dy=".35em" x="41.934051513671875">Identificador</text><text class="token-range" x="0" y="11.5" dx="0" dy="-1.8em">⨳ 26</text><text class="token-value" x="0" y="11.5" dy="2.5em" dx="81.09445476531982">a</text></g><g class="tree-node tree-leaf" transform="translate(1822.2849999999992, 2470)" style="opacity: 1;"><rect width="171" height="23" rx="10" ry="10"></rect><text class="node-text" y="11.5" dy=".35em" x="57.04996871948242">Numero</text><text class="token-range" x="0" y="11.5" dx="0" dy="-1.8em">⨳ 28</text><text class="token-value" x="0" y="11.5" dy="2.5em" dx="81.09445476531982">1</text></g></g><defs><style type="text/css"><![CDATA[
svg.railroad-diagram path { stroke-width: 2; stroke: darkgray; fill: rgba(0, 0, 0, 0);}/* All text except comments. */svg.railroad-diagram text { font: bold 12px Hack, "Source Code Pro", monospace; text-anchor: middle; fill: #404040;}/* Comment text */svg.railroad-diagram text.comment { font: italic 10px Hack, "Source Code Pro", monospace; fill: #404040;}/* The terminal boxes. */svg.railroad-diagram g.terminal rect { stroke-width: 2; stroke: #404040; fill: rgba(200, 200, 200, 1);}svg.railroad-diagram g.non-terminal rect { /* The non-terminal boxes. */ stroke-width: 2; stroke: #404040; fill: rgba(255, 255, 255, 1);}/* Multiple choice text, not working atm. */svg.railroad-diagram text.diagram-text { font-size: 12px Hack, "Source Code Pro", monospace; fill: red;}/* Multiple choice text, not working atm. */svg.railroad-diagram path.diagram-text { stroke-width: 1; stroke: red; fill: red; cursor: help;}
 ]]>
</style></defs></svg>